<mxfile host="app.diagrams.net" agent="Mozilla/5.0 (Windows NT 10.0; Win64; x64) AppleWebKit/537.36 (KHTML, like Gecko) Chrome/132.0.0.0 Safari/537.36" version="26.0.14">
  <diagram id="prtHgNgQTEPvFCAcTncT" name="Page-1">
    <mxGraphModel dx="1400" dy="759" grid="1" gridSize="10" guides="1" tooltips="1" connect="1" arrows="1" fold="1" page="1" pageScale="1" pageWidth="980" pageHeight="1390" math="0" shadow="0">
      <root>
        <mxCell id="0" />
        <mxCell id="1" parent="0" />
        <mxCell id="RlZUK_MxkL_xjFFGA7Wm-2" value="ApplicationContext" style="rounded=0;whiteSpace=wrap;html=1;fillColor=#d5e8d4;strokeColor=#82b366;" vertex="1" parent="1">
          <mxGeometry x="494" y="330" width="120" height="60" as="geometry" />
        </mxCell>
        <mxCell id="RlZUK_MxkL_xjFFGA7Wm-5" value="ListableBeanFactory" style="rounded=0;whiteSpace=wrap;html=1;fillColor=#d5e8d4;strokeColor=#82b366;" vertex="1" parent="1">
          <mxGeometry x="494" y="190" width="120" height="60" as="geometry" />
        </mxCell>
        <mxCell id="RlZUK_MxkL_xjFFGA7Wm-7" value="" style="endArrow=classic;html=1;rounded=0;exitX=0.5;exitY=0;exitDx=0;exitDy=0;" edge="1" parent="1" source="RlZUK_MxkL_xjFFGA7Wm-2" target="RlZUK_MxkL_xjFFGA7Wm-5">
          <mxGeometry width="50" height="50" relative="1" as="geometry">
            <mxPoint x="530" y="330" as="sourcePoint" />
            <mxPoint x="580" y="280" as="targetPoint" />
          </mxGeometry>
        </mxCell>
        <mxCell id="RlZUK_MxkL_xjFFGA7Wm-8" value="BeanFactory" style="rounded=0;whiteSpace=wrap;html=1;fillColor=#d5e8d4;strokeColor=#82b366;" vertex="1" parent="1">
          <mxGeometry x="494" y="90" width="120" height="60" as="geometry" />
        </mxCell>
        <mxCell id="RlZUK_MxkL_xjFFGA7Wm-9" value="" style="endArrow=classic;html=1;rounded=0;entryX=0.5;entryY=1;entryDx=0;entryDy=0;exitX=0.5;exitY=0;exitDx=0;exitDy=0;" edge="1" parent="1" source="RlZUK_MxkL_xjFFGA7Wm-5" target="RlZUK_MxkL_xjFFGA7Wm-8">
          <mxGeometry width="50" height="50" relative="1" as="geometry">
            <mxPoint x="530" y="360" as="sourcePoint" />
            <mxPoint x="580" y="310" as="targetPoint" />
          </mxGeometry>
        </mxCell>
        <mxCell id="RlZUK_MxkL_xjFFGA7Wm-10" value="EnvironmentCapable,&lt;br&gt; HierarchicalBeanFactory,&lt;div&gt;MessageSource,&lt;/div&gt;&lt;div&gt;ApplicationEventPublisher, ResourcePatternResolver&lt;/div&gt;" style="rounded=0;whiteSpace=wrap;html=1;fillColor=#d5e8d4;strokeColor=#82b366;" vertex="1" parent="1">
          <mxGeometry x="140" y="150" width="240" height="120" as="geometry" />
        </mxCell>
        <mxCell id="RlZUK_MxkL_xjFFGA7Wm-11" value="" style="endArrow=classic;html=1;rounded=0;entryX=1;entryY=0.5;entryDx=0;entryDy=0;exitX=0.25;exitY=0;exitDx=0;exitDy=0;" edge="1" parent="1" source="RlZUK_MxkL_xjFFGA7Wm-2" target="RlZUK_MxkL_xjFFGA7Wm-10">
          <mxGeometry width="50" height="50" relative="1" as="geometry">
            <mxPoint x="530" y="360" as="sourcePoint" />
            <mxPoint x="580" y="310" as="targetPoint" />
          </mxGeometry>
        </mxCell>
        <mxCell id="RlZUK_MxkL_xjFFGA7Wm-12" value="이벤트 처리, 환경 변수 로딩, 다국어 지원 등의 기능을 포함한다." style="text;html=1;align=center;verticalAlign=middle;whiteSpace=wrap;rounded=0;" vertex="1" parent="1">
          <mxGeometry x="150" y="270" width="220" height="50" as="geometry" />
        </mxCell>
        <mxCell id="RlZUK_MxkL_xjFFGA7Wm-13" value="Configurable&lt;br&gt;ApplicationContext" style="rounded=0;whiteSpace=wrap;html=1;fillColor=#d5e8d4;strokeColor=#82b366;" vertex="1" parent="1">
          <mxGeometry x="730" y="330" width="120" height="60" as="geometry" />
        </mxCell>
        <mxCell id="RlZUK_MxkL_xjFFGA7Wm-14" value="" style="endArrow=classic;html=1;rounded=0;exitX=1;exitY=0.5;exitDx=0;exitDy=0;" edge="1" parent="1" source="RlZUK_MxkL_xjFFGA7Wm-2" target="RlZUK_MxkL_xjFFGA7Wm-13">
          <mxGeometry width="50" height="50" relative="1" as="geometry">
            <mxPoint x="620" y="340" as="sourcePoint" />
            <mxPoint x="660" y="340" as="targetPoint" />
          </mxGeometry>
        </mxCell>
        <mxCell id="RlZUK_MxkL_xjFFGA7Wm-15" value="빈을 생성하고 관리하는 작업을 정의 해놓은 인터페이스" style="text;html=1;align=center;verticalAlign=middle;whiteSpace=wrap;rounded=0;" vertex="1" parent="1">
          <mxGeometry x="614" y="100" width="176" height="30" as="geometry" />
        </mxCell>
      </root>
    </mxGraphModel>
  </diagram>
</mxfile>
